<?xml version="1.0" encoding="UTF-8"?>
<svg id="_レイヤー_2" data-name="レイヤー 2" xmlns="http://www.w3.org/2000/svg" viewBox="0 0 191.76 191.78">
  <defs>
    <style>
      .cls-1 {
        fill: none;
        stroke: #231815;
        stroke-linecap: round;
        stroke-width: 5.67px;
      }

      .cls-2 {
        fill: #231815;
      }

      .cls-3 {
        fill: #fff100;
      }
    </style>
  </defs>
  <g id="_レイヤー_2-2" data-name="レイヤー 2">
    <g>
      <g>
        <path class="cls-3" d="M95.91,30c28.41,0,54.63,18.52,63.12,47.15,10.35,34.87-9.53,71.54-44.41,81.88-6.25,1.85-12.56,2.74-18.76,2.74-28.41,0-54.63-18.52-63.12-47.15-10.35-34.87,9.53-71.54,44.41-81.88,6.25-1.85,12.56-2.74,18.76-2.74M95.91,0h0c-9.22,0-18.4,1.34-27.3,3.98C17.93,19.02-11.06,72.48,3.97,123.16c6,20.21,18.13,37.48,35.08,49.95,16.38,12.04,36.55,18.67,56.8,18.67,9.22,0,18.4-1.34,27.3-3.98,50.68-15.04,79.67-68.5,64.64-119.18-6-20.21-18.13-37.48-35.08-49.94C136.33,6.64,116.16.01,95.91.01h0Z"/>
        <path class="cls-3" d="M95.85,166.77c-31.12,0-59.05-20.86-67.91-50.73-11.12-37.46,10.32-76.98,47.78-88.1,6.59-1.95,13.38-2.95,20.19-2.95,31.12,0,59.05,20.86,67.91,50.73,11.12,37.46-10.32,76.98-47.78,88.1-6.59,1.95-13.38,2.95-20.19,2.95Z"/>
        <path class="cls-2" d="M95.91,30c28.41,0,54.63,18.52,63.12,47.15,10.35,34.87-9.53,71.54-44.41,81.88-6.25,1.85-12.56,2.74-18.76,2.74-28.41,0-54.63-18.52-63.12-47.15-10.35-34.87,9.53-71.54,44.41-81.88,6.25-1.85,12.56-2.74,18.76-2.74M95.91,20v10-10h0c-7.29,0-14.56,1.06-21.61,3.15-40.11,11.9-63.05,54.21-51.15,94.32,4.75,16,14.34,29.66,27.76,39.52,12.97,9.53,28.93,14.78,44.95,14.78,7.29,0,14.56-1.06,21.61-3.15,40.11-11.9,63.05-54.21,51.15-94.32-4.75-16-14.34-29.66-27.75-39.52-12.97-9.53-28.93-14.78-44.95-14.78h-.01Z"/>
      </g>
      <ellipse class="cls-2" cx="66.74" cy="85.27" rx="5.8" ry="18.35" transform="translate(-21.5 22.51) rotate(-16.53)"/>
      <ellipse class="cls-2" cx="114.59" cy="71.08" rx="5.8" ry="18.35" transform="translate(-15.49 35.54) rotate(-16.53)"/>
      <path class="cls-1" d="M134.39,95.79c5.75.23,10.37,1.94,13.87,5.14"/>
      <path class="cls-1" d="M63.55,116.81c-4.69,3.33-7.63,7.29-8.82,11.88"/>
      <path class="cls-1" d="M140.94,97.06c5.44,18.35-8.54,38.68-31.23,45.41s-45.5-2.68-50.95-21.03"/>
    </g>
  </g>
</svg>