<svg width="269" height="193" viewBox="0 0 269 193" fill="none" xmlns="http://www.w3.org/2000/svg">
<path d="M8.92867 163.345C5.09421 162.682 1.93177 160.098 0.62726 156.577C-0.677247 153.065 0.0837157 149.146 2.62355 146.316L62.285 79.7412C64.7952 76.9392 68.6791 75.614 72.474 76.2766L106.055 82.1266C109.85 82.7892 113.003 85.3261 114.327 88.8001L145.704 171.221C147.038 174.723 146.317 178.652 143.807 181.501C141.297 184.35 137.383 185.704 133.549 185.032L8.92867 163.336V163.345Z" fill="white"/>
<path d="M135.496 174.799L10.8755 153.093L70.537 86.5283L104.118 92.3688L135.496 174.799Z" fill="white"/>
<path d="M134.824 178.368L10.2036 156.671C8.8694 156.435 7.76255 155.536 7.30795 154.314C6.85334 153.093 7.12018 151.721 8.00961 150.736L67.6711 84.1618C68.5506 83.1868 69.9045 82.7229 71.2288 82.9501L104.81 88.8001C106.134 89.0273 107.231 89.9171 107.696 91.1288L139.073 173.559C139.538 174.78 139.291 176.153 138.411 177.146C137.531 178.14 136.168 178.614 134.833 178.377L134.824 178.368ZM18.0603 150.661L129.675 170.094L101.302 95.5683L71.9997 90.4661L18.0603 150.651V150.661Z" fill="black"/>
<path d="M55.2485 129.513C55.1695 129.495 55.0805 129.485 55.0015 129.457C53.6377 129.125 52.5703 128.094 52.2442 126.778L47.7476 108.679L55.1201 107.003L57.9366 118.344L73.8279 101.305C74.7272 100.339 76.0317 99.8659 77.4153 100.169C78.7396 100.424 79.8168 101.333 80.2417 102.564L84.6988 115.191L92.5654 108.764C93.7809 107.77 95.5203 107.609 96.9039 108.376L117.598 119.707L113.833 126.011L95.4511 115.949L85.3609 124.194C84.4023 124.979 83.1176 125.254 81.8921 124.932C80.6766 124.61 79.7081 123.739 79.3128 122.594L75.1423 110.79L58.747 128.359C57.8674 129.305 56.5333 129.741 55.2387 129.513H55.2485Z" fill="black"/>
<path d="M131.106 3.22014L73.1315 136.1L207.017 189.692L264.992 56.8123L131.106 3.22014Z" fill="#EE762B"/>
<path d="M129.784 -2.95119e-06L268.312 55.4503L208.339 192.912L69.8108 137.462L129.784 -2.95119e-06ZM205.696 186.472L261.671 58.175L132.427 6.4409L76.4522 134.737L205.696 186.472Z" fill="black"/>
<path d="M142.858 137.228C142.531 137.228 142.215 137.171 141.909 137.048L118.447 127.658C117.667 127.346 117.113 126.674 116.965 125.878C116.817 125.083 117.113 124.269 117.736 123.73L136.068 107.694C124.397 98.6257 120.612 84.5781 126.235 70.3601C131.562 58.1584 143.866 50.3206 157.612 50.3206C162.139 50.3206 166.566 51.1725 170.776 52.8575C188.1 59.7961 196.323 78.889 189.108 95.4356C186.766 100.803 184.631 104.637 170.825 115.409L144.458 136.67C144.004 137.039 143.441 137.228 142.867 137.228H142.858Z" fill="black"/>
<path d="M157.622 52.6776C161.694 52.6776 165.835 53.4349 169.827 55.0347C185.956 61.4905 193.565 79.0689 186.835 94.5174C184.651 99.5249 182.813 103.008 169.264 113.573L142.867 134.862L119.406 125.471L139.942 107.505C126.304 98.5405 123.3 84.455 128.547 71.1932C133.607 59.5878 145.308 52.6776 157.612 52.6776M157.622 47.9446C142.867 47.9446 129.674 56.3504 123.992 69.3662C123.972 69.4135 123.952 69.4609 123.932 69.5177C118.269 83.8398 121.521 98.0104 132.362 107.732L116.076 121.978C114.83 123.067 114.247 124.695 114.544 126.285C114.83 127.876 115.947 129.22 117.509 129.845L140.97 139.235C141.583 139.481 142.235 139.604 142.877 139.604C144.024 139.604 145.15 139.225 146.059 138.487L172.426 117.217C185.906 106.7 188.673 102.601 191.401 96.3444C195.166 87.7114 195.196 78.2075 191.48 69.5934C187.774 60.9982 180.757 54.2774 171.744 50.6614C167.238 48.8533 162.484 47.9446 157.632 47.9446H157.622Z" fill="black"/>
<path d="M201.046 160.515C200.73 160.515 200.404 160.458 200.098 160.335L176.369 150.84C175.767 150.594 175.282 150.14 175.035 149.553C174.788 148.966 174.788 148.322 175.035 147.745L198.428 94.1104L193.466 92.1225C192.864 91.8764 192.379 91.422 192.132 90.8352C191.885 90.2483 191.885 89.6046 192.132 89.0271L201.432 67.7002C201.827 66.7915 202.746 66.2424 203.715 66.2424C204.031 66.2424 204.357 66.2992 204.663 66.4223L235.636 78.8133C236.238 79.0594 236.723 79.5138 236.97 80.1007C237.217 80.6876 237.217 81.3313 236.97 81.9087L203.319 159.057C202.924 159.965 202.005 160.515 201.037 160.515H201.046Z" fill="black"/>
<path d="M203.734 68.5995L234.707 80.9905L201.056 158.139L177.318 148.644L201.669 92.823L194.435 89.9264L203.734 68.5995ZM203.734 63.8665C201.798 63.8665 199.969 64.9645 199.169 66.7725L189.869 88.0995C189.365 89.2543 189.355 90.5606 189.859 91.7249C190.353 92.8893 191.312 93.8075 192.528 94.2902L195.206 95.3599L172.762 146.817C172.258 147.972 172.248 149.278 172.752 150.443C173.256 151.607 174.205 152.525 175.421 153.008L199.159 162.502C199.772 162.748 200.414 162.872 201.066 162.872C201.718 162.872 202.341 162.758 202.944 162.521C204.159 162.048 205.118 161.13 205.622 159.965L239.272 82.8174C240.32 80.4036 239.134 77.63 236.614 76.6267L205.642 64.2356C205.019 63.9895 204.377 63.8665 203.734 63.8665Z" fill="black"/>
<path d="M139.408 128.5C139.082 128.5 138.766 128.444 138.46 128.321L114.998 118.93C114.218 118.618 113.664 117.946 113.516 117.151C113.368 116.356 113.664 115.541 114.287 115.002L132.619 98.9665C120.948 89.898 117.163 75.8599 122.786 61.6325C128.113 49.4308 140.416 41.5835 154.163 41.5835C158.689 41.5835 163.117 42.4354 167.327 44.1203C184.651 51.0495 192.874 70.1519 185.659 86.6985C183.317 92.0657 181.182 95.8995 167.376 106.672L141.009 127.932C140.555 128.302 139.992 128.491 139.418 128.491H139.408V128.5Z" fill="white"/>
<path d="M154.163 43.9594C158.235 43.9594 162.376 44.7167 166.368 46.3165C182.497 52.7723 190.106 70.3507 183.376 85.7992C181.192 90.8067 179.354 94.2902 165.805 104.854L139.408 126.143L115.947 116.753L136.483 98.7866C122.845 89.8223 119.841 75.7368 125.089 62.475C130.148 50.8696 141.849 43.9594 154.153 43.9594M154.163 39.2264C139.408 39.2264 126.215 47.6322 120.533 60.648C120.513 60.6953 120.493 60.7427 120.473 60.7995C114.811 75.1216 118.062 89.2922 128.903 99.0138L112.617 113.26C111.371 114.349 110.788 115.977 111.085 117.567C111.371 119.157 112.488 120.502 114.05 121.126L137.511 130.517C138.124 130.763 138.776 130.886 139.418 130.886C140.565 130.886 141.691 130.507 142.601 129.769L168.967 108.508C182.447 97.9915 185.214 93.8832 187.942 87.6356C191.707 79.0026 191.737 69.4987 188.021 60.8847C184.315 52.2895 177.298 45.5686 168.286 41.9526C163.779 40.1446 159.025 39.2359 154.173 39.2359L154.163 39.2264Z" fill="black"/>
<path d="M197.597 151.787C197.271 151.787 196.945 151.73 196.649 151.607L172.92 142.113C171.665 141.611 171.063 140.219 171.596 139.017L194.988 85.3827L190.027 83.3949C189.424 83.1487 188.94 82.6944 188.693 82.1075C188.446 81.5206 188.446 80.8769 188.693 80.2995L197.993 58.9725C198.388 58.0638 199.307 57.5148 200.276 57.5148C200.592 57.5148 200.918 57.5716 201.224 57.6946L232.197 70.0856C232.799 70.3317 233.284 70.7861 233.531 71.373C233.778 71.9599 233.778 72.6036 233.531 73.181L199.88 150.329C199.623 150.907 199.149 151.37 198.536 151.607C198.24 151.721 197.914 151.787 197.597 151.787Z" fill="white"/>
<path d="M200.276 59.8813L231.248 72.2723L197.597 149.42L173.869 139.926L198.22 84.1048L190.986 81.2082L200.285 59.8813M200.276 55.1483C198.339 55.1483 196.51 56.2463 195.71 58.0543L186.41 79.3813C185.906 80.5361 185.896 81.8424 186.4 83.0067C186.904 84.1711 187.853 85.0893 189.069 85.572L191.747 86.6417L169.303 138.099C168.256 140.513 169.442 143.286 171.962 144.29L195.69 153.784C196.303 154.03 196.945 154.153 197.597 154.153C198.25 154.153 198.872 154.04 199.475 153.803C200.691 153.33 201.649 152.412 202.153 151.247L235.804 74.0992C236.851 71.6854 235.665 68.9118 233.145 67.9084L202.173 55.5174C201.55 55.2713 200.908 55.1483 200.266 55.1483H200.276Z" fill="black"/>
</svg>
