<?xml version="1.0" encoding="UTF-8"?>
<svg id="_レイヤー_2" data-name="レイヤー 2" xmlns="http://www.w3.org/2000/svg" viewBox="0 0 1291.81 91.01">
  <defs>
    <style>
      .cls-1 {
        fill: none;
      }

      .cls-2 {
        fill-rule: evenodd;
      }

      .cls-2, .cls-3 {
        fill: #5cd5ff;
      }
    </style>
  </defs>
  <g id="_レイヤー_3" data-name="レイヤー 3">
    <g>
      <g>
        <path class="cls-3" d="M1029.81,0v91h91V0h-91ZM1068.47,65.32l-8.41-17.34-8.12,17.3h-7.91l11.64-22.18-11.26-22.43h8.21l7.97,17.05,7.9-17.09h7.71l-11.27,21.77,11.93,22.93h-8.4.01ZM1104.55,63.5c-3.48,1.66-7.12,2.4-10.59,2.4-8.98.04-15.39-5.5-15.39-16.76.29-11.53,7.98-17.96,18.75-17.09v-11.38h7.37v38.32c.02,4.57.52,4.13-.12,4.51M1097.3,38.55v20.48c-7.27,1.89-11.29-2.54-11.26-10.22.03-7.88,5.2-11.97,11.26-10.26"/>
        <g>
          <path class="cls-2" d="M1188.1,45.5c0,4.02,3.26,7.28,7.28,7.28h7.28v-14.56h-7.28c-4.02,0-7.28,3.26-7.28,7.28Z"/>
          <path class="cls-2" d="M1188.1,23.66c0,4.02,3.26,7.28,7.28,7.28h7.28v-14.56h-7.28c-4.02,0-7.28,3.26-7.28,7.28Z"/>
          <path class="cls-2" d="M1188.1,67.34c0,4.02,3.26,7.28,7.28,7.28s7.28-3.26,7.28-7.28v-7.28h-7.28c-4.02,0-7.28,3.26-7.28,7.28Z"/>
          <path class="cls-2" d="M1217.22,38.22c-4.02,0-7.28,3.26-7.28,7.28s3.26,7.28,7.28,7.28,7.28-3.26,7.28-7.28-3.26-7.28-7.28-7.28Z"/>
          <path class="cls-2" d="M1217.77,16.4l-.55-.02h-7.28v14.56h7.28c4.02.02,7.29-3.23,7.31-7.25.02-3.83-2.94-7.02-6.77-7.29h.01Z"/>
          <path class="cls-2" d="M1160.81,0v91h91V0h-91ZM1228.17,55.13c-4.59,5.21-12.22,6.46-18.22,2.98v9.23c0,8.04-6.52,14.56-14.56,14.56s-14.56-6.52-14.56-14.56c0-4.18,1.8-8.15,4.93-10.92-3.13-2.76-4.93-6.74-4.93-10.92s1.8-8.16,4.93-10.92c-6.03-5.32-6.61-14.52-1.29-20.55,2.76-3.13,6.74-4.93,10.92-4.93h21.84c8.04,0,14.56,6.52,14.56,14.56,0,4.18-1.8,8.16-4.93,10.92,6.04,5.31,6.62,14.51,1.31,20.55Z"/>
        </g>
        <path class="cls-3" d="M967.98,38.1c.83,1.58,1.11,3.27,1.09,5.02h-12.01c.73-4.7,2.66-7.57,6.5-7.48,2.23,0,3.71.82,4.43,2.46M923.78,44.5h10.24l-5.32-20.08c-.67,4.54-3.01,12.28-4.92,20.08M989.81,0v91h-91V0h91ZM947.58,64.97l-14.07-47.45h-9.73c0,1.05-.07,2.2-.2,2.66s-.2.89-.2,1.28l-12.43,43.51h7.36l3.5-13.39h13.78l3.85,13.39h8.14ZM976.35,43.51c0-3.15-.92-6.3-2.76-9.45s-5.12-4.73-9.84-4.73-8.17,1.81-10.73,5.41c-4.83,6.37-5.33,18.39-.2,25.4,2.43,3.61,6.46,5.41,12.11,5.41,3.09,0,6.04-.38,8.66-1.58.31-.32.39-.46.39-.98v-5.32c0-.37-.21-.38-.59-.39-3.84,1.88-9.43,1.81-12.25.18-2.63-1.52-4.17-4.68-4.09-8.45h11.22c1.97,0,3.54-.03,4.73-.1,1.18-.06,2.03-.16,2.56-.3.13,0,.23-.03.3-.1l.3-.3c0-.39.03-1.02.1-1.87.06-.85.1-1.8.1-2.85"/>
        <path class="cls-2" d="M858.81,91h-91V0h91v91ZM840.04,38.57v-7.06c-1.16-.52-7.82-2.42-13.08-.42-7.58,2.89-7.3,11.6-4.43,15.01,3.72,4.43,12.99,6.08,11.47,10.42-.79,2.25-4.45,2.64-7.68,1.89-3.01-.7-5.63-2.49-5.63-2.49v7.47s2.59,1.44,5.76,1.78c4.07.44,9.17-.39,11.72-2.66,4.55-4.04,5.25-13-3.37-17.16-7.17-3.46-7.05-4.45-7-6.22.07-2.38,5.06-3.84,12.23-.58M801.36,18.77c5.97.21,14.74,2.96,14.74,14.69s-10.73,15.58-20.52,14.74v16.61h-7.29V18.93s7.11-.36,13.08-.16M803.26,40.92c3.15-1.15,5.19-3.61,5.19-7.45,0-4.06-2.08-6.81-5.26-7.59-3.45-.84-7.61-.35-7.61-.35v16s5.76.08,7.68-.62"/>
        <path class="cls-2" d="M667.39,19.2h9.48l13.63,45.67h-8.23l-3.39-13.01h-13.28l-3.46,13.01h-7.27l12.52-43.52v-2.15ZM677.01,45.15l-4.71-19.31-4.84,19.3h9.55,0ZM704.61,30.93h-7.47v33.94h7.47V30.93ZM700.78,17.74c-2.42,0-4.38,1.94-4.38,4.33s1.96,4.33,4.38,4.33,4.38-1.94,4.38-4.33-1.96-4.33-4.38-4.33M727.81,91h-91V0h91v91Z"/>
        <path class="cls-2" d="M454.43,0c6.28,0,11.38,5.09,11.38,11.38v68.25c0,6.28-5.09,11.38-11.38,11.38h-68.25c-6.28,0-11.38-5.09-11.38-11.38V11.38c0-6.28,5.09-11.38,11.38-11.38h68.25ZM447.96,42.59c-2.22,0-4.13.46-5.72,1.39-1.54.91-2.79,2.24-3.61,3.83-.89,1.75-1.33,3.7-1.28,5.66,0,2.86.56,5.1,1.67,6.72,1.15,1.59,2.98,2.98,5.5,4.16l2.67,1.22c1.66.71,2.85,1.52,3.55,2.45.7.93,1.05,2.13,1.05,3.61,0,1.81-.31,3.15-.94,4-.59.85-1.59,1.27-3,1.27s-2.41-.46-3.11-1.39c-.71-.92-1.09-2.35-1.17-4.28h-6.61c.08,3.78,1.02,6.67,2.83,8.67,1.82,2,4.44,3,7.88,3s6.13-.98,8.06-2.95c1.92-1.96,2.88-4.77,2.88-8.44,0-3.07-.63-5.51-1.89-7.33-1.26-1.82-3.24-3.31-5.94-4.49l-2.55-1.11c-1.48-.63-2.53-1.35-3.16-2.17-.63-.81-.94-1.9-.94-3.28,0-1.52.31-2.65.94-3.39.67-.74,1.63-1.11,2.89-1.11,1.37,0,2.33.44,2.89,1.33.59.89.93,2.22,1,4h6.39c-.11-3.7-1.06-6.51-2.83-8.44-1.78-1.96-4.26-2.95-7.44-2.95M414.62,43.2v6.33h7.39v32.94h6.94v-32.94h7.33v-6.33h-21.67.01Z"/>
        <path class="cls-2" d="M323.42,0c6.28,0,11.38,5.09,11.38,11.38v68.25c0,6.28-5.09,11.38-11.38,11.38h-68.25c-6.28,0-11.37-5.09-11.37-11.38V11.38c0-6.28,5.09-11.38,11.37-11.38h68.25ZM295.29,43.2v17.78l-.04,9.96c0,1.89-.35,3.31-1.06,4.28-.71.96-1.76,1.46-3.16,1.5-1.3,0-2.3-.44-3-1.33-.7-.89-1.05-2.18-1.05-3.89v-1h-6.94v1.05c0,2.52.48,4.63,1.44,6.33.97,1.71,2.3,2.98,4,3.83,1.67.85,3.59,1.28,5.78,1.28,3.34,0,6-.94,8-2.83,2-1.89,3-4.7,3-8.45l.04-9.96v-18.56h-7.01ZM316.95,42.59c-2.22,0-4.13.46-5.72,1.39-1.54.91-2.79,2.24-3.61,3.83-.89,1.75-1.33,3.7-1.28,5.66,0,2.86.56,5.1,1.67,6.72,1.15,1.59,2.98,2.98,5.5,4.16l2.67,1.22c1.66.71,2.85,1.52,3.55,2.45.7.93,1.05,2.13,1.05,3.61,0,1.81-.31,3.15-.94,4-.59.85-1.59,1.27-3,1.27s-2.41-.46-3.11-1.39c-.71-.92-1.09-2.35-1.17-4.28h-6.61c.08,3.78,1.02,6.67,2.83,8.67,1.82,2,4.44,3,7.88,3s6.13-.98,8.06-2.95c1.92-1.96,2.88-4.77,2.88-8.44,0-3.07-.63-5.51-1.89-7.33-1.26-1.82-3.24-3.31-5.94-4.49l-2.55-1.11c-1.48-.63-2.53-1.35-3.16-2.17-.63-.81-.94-1.9-.94-3.28,0-1.52.31-2.65.94-3.39.67-.74,1.63-1.11,2.89-1.11,1.37,0,2.33.44,2.89,1.33.59.89.93,2.22,1,4h6.39c-.11-3.7-1.06-6.51-2.83-8.44-1.78-1.96-4.26-2.95-7.44-2.95"/>
        <path class="cls-3" d="M121.9,0l7.18,81.14,33.77,9.86,33.98-9.85L203.8,0h-81.9,0ZM182.41,66.99l-19.53,5.48h-.03l-19.55-5.48-1.35-14.41h9.59l.68,6.94,10.62,2.91,10.65-2.91,1.11-13.88h-33.08l-.85-9.13h34.76l.79-9.13h-36.48l-.8-9.13h47.8l-4.34,48.73h.01Z"/>
        <path class="cls-3" d="M0,0l7.18,81.1,33.77,9.9,33.97-9.9L81.9,0H0ZM63.92,27.52H27.64l.78,9.17h35.02l-2.85,29.87-19.32,6.28-19.48-6.62-1.31-13.34h9.21l.73,6.42,10.92,3.71,10.67-3.47,1.35-13.67H20.08l-2.56-27.53h47.37l-.99,9.18h.02Z"/>
        <path class="cls-3" d="M505.81,0v91h91V0h-91ZM541.98,13.74l9.33,17.09,9.33-17.09h11.19l-20.52,37.61-20.52-37.61h11.19ZM551.31,80.9l-37.31-67.16h13.06l24.25,44.77,24.25-44.77h13.06l-37.31,67.16Z"/>
      </g>
      <rect class="cls-1" y=".01" width="1291.81" height="90.99"/>
    </g>
  </g>
</svg>