<?xml version="1.0" encoding="UTF-8"?>
<svg id="_レイヤー_2" data-name="レイヤー 2" xmlns="http://www.w3.org/2000/svg" xmlns:xlink="http://www.w3.org/1999/xlink" viewBox="0 0 128.34 120.59">
  <defs>
    <style>
      .cls-1, .cls-2, .cls-3 {
        fill: none;
      }

      .cls-4, .cls-2 {
        stroke: #00a0e9;
      }

      .cls-4, .cls-2, .cls-5, .cls-3 {
        stroke-linejoin: round;
        stroke-width: 7px;
      }

      .cls-4, .cls-5 {
        fill: #fff;
      }

      .cls-2 {
        stroke-linecap: round;
      }

      .cls-5, .cls-3 {
        stroke: #231815;
      }

      .cls-6 {
        clip-path: url(#clippath);
      }
    </style>
    <clipPath id="clippath">
      <polygon class="cls-1" points="3.5 47.37 64.17 92.72 124.84 47.37 124.84 0 3.5 0 3.5 47.37"/>
    </clipPath>
  </defs>
  <g id="_レイヤー_2-2" data-name="レイヤー 2">
    <g>
      <polygon class="cls-5" points="124.84 117.09 3.5 117.09 3.5 47.37 64.17 6.29 124.84 47.37 124.84 117.09"/>
      <line class="cls-3" x1="124.84" y1="117.09" x2="83.17" y2="70.05"/>
      <line class="cls-3" x1="3.5" y1="117.09" x2="45.17" y2="70.05"/>
      <g class="cls-6">
        <g>
          <rect class="cls-4" x="25.27" y="18.83" width="77.81" height="78.97"/>
          <g>
            <line class="cls-2" x1="39.34" y1="30.16" x2="88.99" y2="30.16"/>
            <line class="cls-2" x1="39.34" y1="41.42" x2="88.99" y2="41.42"/>
            <line class="cls-2" x1="39.34" y1="52.69" x2="88.99" y2="52.69"/>
            <line class="cls-2" x1="39.34" y1="63.95" x2="88.99" y2="63.95"/>
            <line class="cls-2" x1="39.34" y1="75.21" x2="88.99" y2="75.21"/>
            <line class="cls-2" x1="39.34" y1="86.48" x2="88.99" y2="86.48"/>
          </g>
        </g>
      </g>
      <polyline class="cls-3" points="3.5 47.37 64.17 92.72 124.84 47.37"/>
    </g>
  </g>
</svg>