<svg width="74" height="74" viewBox="0 0 74 74" fill="none" xmlns="http://www.w3.org/2000/svg">
<path d="M72 37C72 56.33 56.33 72 37 72C17.67 72 2 56.33 2 37C2 17.67 17.67 2 37 2C56.33 2 72 17.67 72 37Z" fill="white" fill-opacity="0.8"/>
<path d="M70 37C70 18.7746 55.2254 4 37 4C18.7746 4 4 18.7746 4 37C4 55.2254 18.7746 70 37 70C55.2254 70 70 55.2254 70 37ZM74 37C74 57.4345 57.4345 74 37 74C16.5655 74 0 57.4345 0 37C0 16.5655 16.5655 0 37 0C57.4345 0 74 16.5655 74 37Z" fill="black"/>
<path d="M26.2756 47.7244L47.7245 26.2755L26.2756 47.7244ZM47.6066 44.5425L47.7245 26.2755L47.6066 44.5425ZM29.4576 26.3934L47.7245 26.2755L29.4576 26.3934Z" fill="white" fill-opacity="0.8"/>
<path d="M27.4575 26.406C27.4505 25.3016 28.3404 24.4009 29.4448 24.3938L47.7115 24.2757C48.2463 24.2723 48.7599 24.4832 49.1382 24.8613C49.5164 25.2395 49.7279 25.7537 49.7244 26.2886L49.6063 44.5553C49.5992 45.6599 48.698 46.5491 47.5934 46.542C46.489 46.5347 45.5996 45.6336 45.6068 44.5291L45.6931 31.1348L27.6895 49.1384C26.9084 49.9194 25.6421 49.9194 24.8611 49.1384C24.0802 48.3573 24.0801 47.0909 24.8611 46.31L42.8647 28.3064L29.4704 28.3927C28.3658 28.3998 27.4646 27.5106 27.4575 26.406Z" fill="black"/>
</svg>
