<svg width="74" height="74" viewBox="0 0 74 74" fill="none" xmlns="http://www.w3.org/2000/svg">
<path d="M72 37C72 56.33 56.33 72 37 72C17.67 72 2 56.33 2 37C2 17.67 17.67 2 37 2C56.33 2 72 17.67 72 37Z" fill="black"/>
<path d="M70 37C70 18.7746 55.2254 4 37 4C18.7746 4 4 18.7746 4 37C4 55.2254 18.7746 70 37 70C55.2254 70 70 55.2254 70 37ZM74 37C74 57.4345 57.4345 74 37 74C16.5655 74 0 57.4345 0 37C0 16.5655 16.5655 0 37 0C57.4345 0 74 16.5655 74 37Z" fill="white"/>
<path d="M26.2756 48.7244L47.7245 27.2755ZM47.6066 45.5425L47.7245 27.2755ZM29.4576 27.3934L47.7245 27.2755Z" fill="black"/>
<path d="M27.4575 27.406C27.4505 26.3016 28.3404 25.4009 29.4448 25.3938L47.7115 25.2757C48.2463 25.2723 48.7599 25.4832 49.1382 25.8613C49.5164 26.2395 49.7279 26.7537 49.7244 27.2886L49.6063 45.5553C49.5992 46.6599 48.698 47.5491 47.5934 47.542C46.489 47.5347 45.5996 46.6336 45.6068 45.5291L45.6931 32.1348L27.6895 50.1384C26.9084 50.9194 25.6421 50.9194 24.8611 50.1384C24.0802 49.3573 24.0801 48.0909 24.8611 47.31L42.8647 29.3064L29.4704 29.3927C28.3658 29.3998 27.4646 28.5106 27.4575 27.406Z" fill="white"/>
</svg>
