<?xml version="1.0" encoding="UTF-8"?>
<svg id="_レイヤー_2" data-name="レイヤー 2" xmlns="http://www.w3.org/2000/svg" viewBox="0 0 765.77 580.19">
  <defs>
    <style>
      .cls-1 {
        fill: #ffe800;
      }

      .cls-2 {
        fill: #fff;
      }

      .cls-3 {
        fill: #95c036;
      }

      .cls-4 {
        fill: #00a0e9;
      }

      .cls-5 {
        fill: #e60012;
      }
    </style>
  </defs>
  <g id="_レイヤー_2-2" data-name="レイヤー 2">
    <g>
      <g>
        <path class="cls-5" d="M54.09,493.43l614.75,76.64c26.98,3.36,51.57-15.78,54.94-42.76l41.61-333.72c3.36-26.98-15.78-51.57-42.76-54.94l-345.01-43.01c-14.43-1.8-27.32-9.89-35.23-22.09l-19.15-29.58c-7.9-12.21-20.8-20.29-35.23-22.09L115.56.38c-26.98-3.36-51.57,15.78-54.94,42.76L11.33,438.49c-3.36,26.98,15.78,51.57,42.76,54.94h0Z"/>
        <path class="cls-1" d="M52.47,522.35l616.34,51.1c27.05,2.24,50.79-17.87,53.03-44.91l27.74-334.58c2.24-27.05-17.87-50.79-44.91-53.03l-345.9-28.68c-14.47-1.2-27.66-8.73-36.05-20.58l-20.32-28.71c-8.39-11.85-21.58-19.38-36.05-20.58l-172.89-14.33c-27.05-2.24-50.79,17.87-53.03,44.91L7.57,469.33c-2.24,27.05,17.87,50.79,44.91,53.03h-.01Z"/>
        <path class="cls-3" d="M50.84,551.26l617.93,25.55c27.12,1.12,50.01-19.95,51.13-47.07l13.87-335.44c1.12-27.12-19.95-50.01-47.07-51.13l-346.79-14.34c-14.5-.6-28-7.58-36.87-19.07l-21.49-27.85c-8.87-11.49-22.37-18.47-36.87-19.07l-173.34-7.17c-27.12-1.12-50.01,19.95-51.13,47.07L3.78,500.13c-1.12,27.12,19.95,50.01,47.07,51.13h0Z"/>
        <path class="cls-4" d="M49.21,580.18h619.51c27.19,0,49.22-22.04,49.22-49.22V194.66c0-27.19-22.04-49.22-49.22-49.22h-347.68c-14.54,0-28.34-6.43-37.69-17.56l-22.66-26.98c-9.35-11.13-23.15-17.56-37.69-17.56H49.22C22.03,83.34,0,105.38,0,132.56v398.41c0,27.19,22.04,49.22,49.22,49.22h-.01Z"/>
      </g>
      <g>
        <path class="cls-2" d="M116.99,366.63l-17.85-58v58h-38.67v-104.1h55.02l17.1,56.51,17.1-56.51h55.02v104.1h-38.67v-58l-17.85,58h-31.23.03Z"/>
        <path class="cls-2" d="M239.66,366.63l-26.03-78.82h37.18l6.69,41.64,6.69-41.64h37.18l-28.26,84.77c-8.92,26.77-19.33,37.18-37.92,37.18-10.41,0-19.33-5.95-19.33-5.95l8.18-26.02s2.23,1.49,5.21,1.49c3.72,0,6.84-2.97,8.18-6.69l2.23-5.95h0Z"/>
        <path class="cls-2" d="M157.89,475.71l8.18-57.25h40.15l-22.31,104.1h-43.13l-11.15-52.79-11.15,52.79h-43.13l-22.31-104.1h40.15l8.18,57.25,11.15-57.25h34.2l11.15,57.25h.02Z"/>
        <path class="cls-2" d="M251.56,441.51c26.77,0,45.36,18.59,45.36,41.64s-18.59,41.64-45.36,41.64-45.36-18.59-45.36-41.64,18.59-41.64,45.36-41.64h0ZM251.56,472c-5.21,0-9.67,4.46-9.67,11.15s4.46,11.15,9.67,11.15,9.67-4.46,9.67-11.15-4.46-11.15-9.67-11.15Z"/>
        <path class="cls-2" d="M363.83,441.51c5.95,0,10.41,2.23,10.41,2.23l-5.95,32.72s-5.95-2.98-10.41-2.98c-7.44,0-13.38,5.95-13.38,16.36v32.72h-35.69v-78.82h34.2l2.97,8.92s5.95-11.15,17.85-11.15h0Z"/>
        <path class="cls-2" d="M446.36,482.41l23.79,40.15h-39.41l-14.87-31.23v31.23h-35.69v-110.05h35.69v60.97l12.64-29.74h38.67l-20.82,38.67Z"/>
      </g>
    </g>
  </g>
</svg>