<?xml version="1.0" encoding="UTF-8"?>
<svg id="_レイヤー_2" data-name="レイヤー 2" xmlns="http://www.w3.org/2000/svg" viewBox="0 0 700.8 129.94">
  <defs>
    <style>
      .cls-1 {
        fill: none;
        stroke: #fff;
        stroke-width: 3px;
      }
    </style>
  </defs>
  <g id="_レイヤー_2-2" data-name="レイヤー 2">
    <g>
      <path class="cls-1" d="M119.69,6.47l-1.89,44.26c-6.35-4.63-18.7-7.55-32.08-7.55-10.81,0-15.27,1.72-15.27,6.86,36.71,0,53.18,10.98,53.18,38.08,0,28.99-18.53,40.31-66.73,40.31-17.84,0-35.34-1.54-55.06-4.97l2.06-46.14c7.38,4.8,21.44,7.89,36.37,7.89,11.49,0,16.12-1.72,16.12-7.03C18.14,78.18,1.5,67.71,1.5,41.3,1.5,12.82,20.2,1.5,68.74,1.5c17.84,0,34.82,1.54,50.95,4.97Z"/>
      <path class="cls-1" d="M195.34,81.44v43.57h-64.16V4.93h64.16v43.4h5.15l9.26-43.4h67.07l-18.18,59.87,19.21,60.21h-68.1l-9.26-43.57h-5.15Z"/>
      <path class="cls-1" d="M347.31,125.01h-64.16V4.93h64.16v120.08Z"/>
      <path class="cls-1" d="M424.16,77.66h38.42v47.34h-102.58V4.93h64.16v72.73Z"/>
      <path class="cls-1" d="M534.63,77.66h38.42v47.34h-102.58V4.93h64.16v72.73Z"/>
      <path class="cls-1" d="M695.36,6.47l-1.89,44.26c-6.35-4.63-18.7-7.55-32.08-7.55-10.81,0-15.27,1.72-15.27,6.86,36.71,0,53.18,10.98,53.18,38.08,0,28.99-18.53,40.31-66.73,40.31-17.84,0-35.34-1.54-55.06-4.97l2.06-46.14c7.38,4.8,21.44,7.89,36.37,7.89,11.49,0,16.12-1.72,16.12-7.03-38.25,0-54.89-10.46-54.89-36.88,0-28.48,18.7-39.8,67.24-39.8,17.84,0,34.82,1.54,50.95,4.97Z"/>
    </g>
  </g>
</svg>