<svg width="289" height="146" viewBox="0 0 289 146" fill="none" xmlns="http://www.w3.org/2000/svg">
<path d="M36.4511 63.808L35.1536 58.7975H24.4299L23.3062 63.808H2.63484L21.3175 2.98743H42.4213L61.1039 63.808H36.4511ZM29.7048 34.7786L27.1098 47.4764H32.3847L29.7048 34.7786Z" fill="black"/>
<path d="M43.8598 1.04077L63.738 65.7549H34.9439L33.6465 60.7438H25.9881L24.8646 65.7549H0L19.8791 1.04077H43.8598ZM21.3173 2.98743L2.63484 63.8083H23.3058L24.4302 58.7971H35.154L36.4514 63.8083H61.1041L42.4216 2.98743H21.3173ZM32.3851 47.4765H27.1097L29.7047 34.7785L32.3851 47.4765ZM29.4946 45.5298H29.9841L29.7351 44.3512L29.4946 45.5298Z" fill="white"/>
<path d="M64.7338 63.808V2.98743H96.9979C108.587 2.98743 114.124 9.55237 114.124 18.6246C114.124 23.8935 112.136 28.9928 107.811 31.3265C113.086 33.8338 115.422 39.3611 115.422 45.062C115.422 57.8487 107.204 63.808 95.7004 63.808H64.7338ZM85.7528 22.2502V27.5192H92.4141C93.9704 27.5192 94.6616 26.6551 94.6616 24.9271C94.6616 23.1143 93.9704 22.2502 92.4141 22.2502H85.7528ZM91.5451 44.198C93.7925 44.198 94.9203 43.1604 94.9203 41.1739C94.9203 39.0139 93.7966 37.9762 91.5451 37.9762H85.7487V44.198H91.5451Z" fill="black"/>
<path d="M115.422 45.0621C115.422 39.3612 113.085 33.8335 107.81 31.3262C112 29.0654 113.998 24.2094 114.119 19.1177L114.125 18.6244C114.125 9.69416 108.758 3.19332 97.5371 2.99219L96.9982 2.98743V1.04077C103.157 1.04083 107.981 2.79147 111.269 6.01293C114.559 9.23511 116.071 13.6931 116.071 18.6244C116.071 23.2386 114.647 28.0545 111.294 31.195C115.561 34.5083 117.369 39.864 117.369 45.0621C117.369 51.8939 115.157 57.1587 111.165 60.6887C107.211 64.1843 101.765 65.7549 95.7007 65.7549H62.7871V1.04077H96.9982V2.98743H64.7338V63.8083H95.7007L96.2368 63.8035C107.281 63.623 115.168 57.8371 115.415 45.6562L115.422 45.0621ZM92.9737 41.1736C92.9736 40.4143 92.7807 40.218 92.7427 40.1822C92.6818 40.1248 92.4085 39.9227 91.5451 39.9227H87.6955V42.2515H91.5451V44.1981H85.7488V37.976H91.5451C93.7964 37.976 94.9202 39.0138 94.9204 41.1736L94.907 41.5357C94.7748 43.2862 93.6518 44.1981 91.5451 44.1981V42.2515C92.404 42.2515 92.6997 42.0497 92.7712 41.9853C92.8059 41.9541 92.9737 41.7994 92.9737 41.1736ZM92.7152 24.9273C92.7152 24.5898 92.6819 24.3718 92.6477 24.2429C92.6445 24.2309 92.6393 24.2205 92.6363 24.2106C92.5871 24.2032 92.5144 24.1973 92.4138 24.1973H87.6993V25.5727H92.4138V27.5194H85.7526V22.2506H92.4138C93.9701 22.2506 94.6618 23.1145 94.6618 24.9273L94.6533 25.241C94.5716 26.7598 93.8728 27.5194 92.4138 27.5194V25.5727C92.5209 25.5727 92.5971 25.5647 92.6477 25.5565C92.6488 25.5528 92.6513 25.5492 92.6524 25.5451C92.6832 25.4332 92.7151 25.237 92.7152 24.9273Z" fill="white"/>
<path d="M116.804 33.3946C116.804 14.2166 128.049 1.94666 146.384 1.94666C164.719 1.94666 175.791 14.2166 175.791 33.3946C175.791 52.5726 164.634 64.9273 146.384 64.9273C128.134 64.9273 116.804 53.0894 116.804 33.3946ZM154.861 33.3946C154.861 24.8432 152.007 21.2983 146.384 21.2983C140.762 21.2983 137.823 24.8392 137.823 33.3946C137.823 41.95 141.368 45.402 146.384 45.402C151.4 45.402 154.861 41.946 154.861 33.3946Z" fill="black"/>
<path d="M175.79 33.3946C175.79 14.2166 164.719 1.94666 146.384 1.94666C128.049 1.94668 116.804 14.2166 116.804 33.3946C116.804 53.0894 128.134 64.9271 146.384 64.9271C164.634 64.9271 175.79 52.5726 175.79 33.3946ZM152.914 33.3946C152.914 29.2639 152.21 26.7404 151.154 25.2819C150.196 23.9595 148.747 23.2449 146.384 23.2449C144.018 23.2449 142.542 23.9607 141.563 25.2914C140.491 26.7498 139.769 29.2712 139.769 33.3946C139.769 37.4467 140.616 39.9514 141.755 41.4065C142.834 42.7844 144.36 43.4558 146.384 43.4558V45.4025L145.918 45.392C141.15 45.1815 137.823 41.6827 137.823 33.3946C137.823 24.8392 140.762 21.2983 146.384 21.2983C152.007 21.2983 154.861 24.8432 154.861 33.3946L154.85 34.1816C154.643 42.1587 151.244 45.4025 146.384 45.4025V43.4558C148.405 43.4558 149.905 42.7866 150.963 41.416C152.086 39.9613 152.914 37.4537 152.914 33.3946ZM177.737 33.3946C177.737 43.3543 174.836 51.7494 169.361 57.6737C163.869 63.6162 155.968 66.8737 146.384 66.8737C136.826 66.8737 128.881 63.7619 123.334 57.8818C117.8 52.0152 114.857 43.6093 114.857 33.3946C114.857 23.4304 117.784 15.0538 123.296 9.15064C128.823 3.23175 136.765 7.48384e-06 146.384 0C156.004 0 163.907 3.23233 169.391 9.15635C174.859 15.062 177.737 23.4383 177.737 33.3946Z" fill="white"/>
<path d="M209.958 2.99146H231.062V38.8443C231.062 55.7775 222.238 64.9345 205.718 64.9345C189.198 64.9345 179.598 55.8623 179.598 38.9291V2.98743H200.702V41.0003C200.702 43.9396 202.347 45.4941 205.459 45.4941C208.572 45.4941 209.958 43.9396 209.958 41.0003V2.98743V2.99146Z" fill="black"/>
<path d="M200.701 41.0006V2.98743H179.598V38.9294L179.605 39.7174C179.895 55.8831 189.155 64.6538 204.949 64.928L205.718 64.9346C221.98 64.9346 230.784 56.0616 231.055 39.6328L231.062 38.8448V2.99124H209.958V41.0006L209.954 41.2715C209.87 44.035 208.475 45.4936 205.46 45.4937V43.547C206.716 43.547 207.244 43.2352 207.48 42.9919C207.727 42.7386 208.012 42.1977 208.012 41.0006V2.98743L209.958 1.04457H233.009V38.8448C233.008 47.6313 230.717 54.7112 225.983 59.5946C221.24 64.4881 214.33 66.8813 205.718 66.8813C197.113 66.8813 190.03 64.5137 185.099 59.6707C180.161 54.8219 177.651 47.7592 177.651 38.9294V1.04077H202.648V41.0006C202.648 42.1121 202.952 42.652 203.251 42.9339C203.568 43.2336 204.203 43.547 205.46 43.547V45.4937L205.172 45.4899C202.34 45.3989 200.803 43.9459 200.707 41.2715L200.701 41.0006Z" fill="white"/>
<path d="M249.83 63.8121V22.4279H234.607V2.98743H286.848V22.4279H271.884V63.8121H249.826H249.83Z" fill="black"/>
<path d="M234.607 2.98743V22.4274H249.83V63.8121H271.884V22.4274H286.848V2.98743H234.607ZM288.795 24.3741H273.831V65.7587H249.826V63.8121H247.883V24.3741H232.661V1.04077H288.795V24.3741Z" fill="white"/>
<path d="M132.674 144.053V122.368L122.985 144.053H117.795L108.106 122.453V144.053H90.2882V83.2327H112.69L121.081 102.326L129.299 83.2327H150.491V144.053H132.674Z" fill="black"/>
<path d="M150.491 83.2327H129.298L121.081 102.326L112.69 83.2327H90.2882V144.054H108.106V122.453L117.794 144.054H122.985L132.674 122.368V144.054H150.491V83.2327ZM152.438 146H130.727V131.497L124.247 146H116.535L110.052 131.548V146H88.3415V81.286H113.961L121.062 97.4448L128.017 81.286H152.438V146Z" fill="white"/>
<path d="M174.623 144.053C163.034 144.053 154.901 138.09 154.901 125.307C154.901 119.691 157.064 113.99 162.428 111.572C158.103 109.238 156.199 104.143 156.199 98.8698C156.199 89.7976 161.733 83.2327 173.325 83.2327H200.743V102.5H178.253C176.438 102.5 175.658 103.364 175.658 105.176C175.658 106.989 176.438 107.768 178.253 107.768H198.148V118.221H178.774C176.438 118.221 175.403 119.259 175.403 121.419C175.403 123.406 176.442 124.443 178.774 124.443H200.832V144.053H174.623Z" fill="black"/>
<path d="M200.832 124.443H178.774V122.497H202.779V146H174.623C168.518 146 163.07 144.43 159.125 140.93C155.142 137.397 152.955 132.131 152.955 125.307C152.955 120.245 154.605 114.735 158.92 111.414C155.601 108.265 154.252 103.454 154.252 98.8697C154.252 93.9389 155.764 89.4815 159.052 86.2591C162.341 83.0373 167.165 81.286 173.325 81.286V83.2327C161.733 83.2327 156.199 89.7975 156.199 98.8697C156.199 104.142 158.103 109.238 162.428 111.571C157.064 113.99 154.901 119.691 154.901 125.307L154.907 125.901C155.152 138.078 162.961 143.868 174.082 144.049L174.623 144.054H200.832V124.443ZM175.403 121.419C175.403 119.259 176.438 118.221 178.774 118.221H198.148V107.768H178.253V105.822H200.095V120.168H178.774C177.849 120.168 177.598 120.379 177.562 120.414C177.542 120.433 177.35 120.619 177.35 121.419C177.35 122.082 177.516 122.229 177.532 122.244C177.579 122.286 177.854 122.497 178.774 122.497V124.443L178.352 124.431C176.452 124.318 175.53 123.415 175.416 121.781L175.403 121.419ZM175.658 105.176C175.658 103.477 176.344 102.612 177.925 102.51L178.253 102.5H200.743V83.2327H173.325V81.286H202.69V104.446H178.253C177.924 104.446 177.759 104.487 177.688 104.513C177.66 104.584 177.605 104.773 177.605 105.176C177.605 105.501 177.64 105.677 177.665 105.76C177.747 105.785 177.924 105.822 178.253 105.822V107.768L177.925 107.759C176.449 107.673 175.753 106.978 175.667 105.504L175.658 105.176Z" fill="white"/>
</svg>
