<svg width="783" height="96" viewBox="0 0 783 96" fill="none" xmlns="http://www.w3.org/2000/svg">
<path d="M53.0372 76.9744L51.9386 88.7377H4.84082L20.6604 6.34964H98.2831L114.103 88.7377H66.283L65.1844 76.9744H53.0372ZM61.1353 32.7229H57.0863L55.1245 54.7282H63.2227L61.1353 32.7229Z" fill="black"/>
<path d="M101.588 2.34964L118.944 92.7373H62.6387L61.541 80.9746H56.6807L55.582 92.7373H0L17.3555 2.34964H101.588ZM20.6602 6.34964L4.84082 88.7373H51.9385L53.0371 76.9746H65.1846L66.2832 88.7373H114.103L98.2832 6.34964H20.6602ZM61.1357 32.7227L63.2227 54.7285H55.125L57.0859 32.7227H61.1357Z" fill="white"/>
<path d="M179.107 6.34964C209.883 6.34964 218.97 11.2899 218.97 28.0085C218.97 39.3049 214.796 44.4861 203.763 47.0768V47.6642C217.244 50.0138 222.031 55.1951 222.031 67.1993C222.031 83.9179 212.834 88.7377 180.834 88.7377H118.042V6.34964H179.107ZM163.9 25.5384V38.9585H165.862C171.998 38.9585 174.195 37.1962 174.195 32.2559C174.195 27.3157 171.982 25.5534 165.862 25.5534H163.9V25.5384ZM163.9 56.2494V69.6695H165.862C171.998 69.6695 174.195 67.9072 174.195 62.967C174.195 58.0267 171.982 56.2645 165.862 56.2645H163.9V56.2494Z" fill="black"/>
<path d="M222.03 67.1992C222.03 55.1951 217.244 50.0137 203.763 47.6641V47.0772C214.451 44.5675 218.703 39.6262 218.958 29.0498L218.971 28.0088C218.971 11.2902 209.883 6.34964 179.107 6.34964V2.34964C194.428 2.34964 205.37 3.52529 212.49 7.39456C216.23 9.42674 218.959 12.2149 220.685 15.8594C222.366 19.4093 222.971 23.5086 222.971 28.0088C222.971 34.0845 221.859 39.2636 218.629 43.3047C217.548 44.6565 216.289 45.8062 214.87 46.791C217.203 47.9049 219.218 49.3043 220.877 51.083C224.747 55.232 226.03 60.7265 226.03 67.1992C226.03 71.7023 225.419 75.8115 223.691 79.3662C221.917 83.0176 219.113 85.7807 215.286 87.7823C208.004 91.5914 196.751 92.7373 180.834 92.7373H114.042V2.34964H179.107V6.34964H118.042V88.7373H180.834L183.768 88.7237C213.4 88.4251 222.03 83.3954 222.03 67.1992ZM170.195 62.9668C170.195 62.0004 170.083 61.453 169.981 61.1651C169.901 60.937 169.841 60.8994 169.82 60.8828C169.689 60.7772 169.211 60.5093 167.9 60.3633V65.5703C169.218 65.4244 169.694 65.1566 169.823 65.0528C169.841 65.0382 169.901 65.0032 169.981 64.7735C170.083 64.4845 170.195 63.9359 170.195 62.9668ZM170.195 32.2559C170.195 31.2894 170.083 30.7421 169.981 30.4541C169.901 30.2262 169.841 30.1885 169.82 30.1719C169.689 30.0662 169.211 29.7983 167.9 29.6524V34.8594C169.218 34.7135 169.694 34.4457 169.823 34.3418C169.841 34.3272 169.901 34.2922 169.981 34.0625C170.083 33.7736 170.195 33.2249 170.195 32.2559ZM174.188 63.4209C174.054 68.0157 171.806 69.67 165.861 69.67H163.9V56.2647H165.861C171.982 56.2647 174.195 58.0267 174.195 62.9668L174.188 63.4209ZM174.188 32.71C174.054 37.3047 171.806 38.958 165.861 38.958H163.9V25.5537H165.861C171.982 25.5537 174.195 27.3157 174.195 32.2559L174.188 32.71Z" fill="white"/>
<path d="M330.194 47.5437C330.194 77.5619 313.637 91.0874 276.975 91.0874C240.314 91.0874 223.757 77.5468 223.757 47.5437C223.757 17.5406 240.298 4 276.96 4C313.621 4 330.178 17.5406 330.178 47.5437H330.194ZM271.561 47.5437C271.561 57.1983 272.911 60.3764 276.96 60.3764C281.009 60.3764 282.358 57.1983 282.358 47.5437C282.358 37.8891 281.009 34.711 276.96 34.711C272.911 34.711 271.561 37.8891 271.561 47.5437Z" fill="black"/>
<path d="M276.96 0C295.646 4.1954e-05 310.071 3.42497 319.85 11.4248C328.948 18.8682 333.379 29.7236 334.077 43.5439H334.193V47.5439C334.193 63.2875 329.825 75.5233 319.865 83.6689C310.087 91.6669 295.661 95.0869 276.976 95.0869C258.29 95.0869 243.864 91.663 234.085 83.6631C224.126 75.5158 219.757 63.2805 219.757 47.5439C219.757 31.8084 224.123 19.5735 234.077 11.4258C243.852 3.42529 258.274 0 276.96 0ZM278.359 47.5439C278.359 42.6888 277.986 40.2331 277.491 39.0605C277.423 38.8976 277.364 38.7971 277.325 38.7373C277.255 38.7255 277.138 38.711 276.96 38.7109C276.781 38.7109 276.663 38.7255 276.593 38.7373C276.555 38.7971 276.496 38.8981 276.428 39.0605C275.934 40.2332 275.561 42.6889 275.561 47.5439C275.561 52.399 275.934 54.8548 276.428 56.0273C276.496 56.1893 276.555 56.2898 276.593 56.3496C276.663 56.3614 276.78 56.376 276.96 56.376V60.376L276.588 60.3672C272.949 60.178 271.645 57.1046 271.565 48.4297L271.561 47.5439C271.561 37.8893 272.911 34.7109 276.96 34.7109L277.331 34.7207C281.092 34.9161 282.359 38.1908 282.359 47.5439L282.355 48.4297C282.272 57.3935 280.882 60.3758 276.96 60.376V56.376C277.138 56.376 277.255 56.3614 277.325 56.3496C277.364 56.2899 277.423 56.1898 277.491 56.0273C277.986 54.8548 278.359 52.399 278.359 47.5439ZM223.769 48.9385C224.271 77.506 240.364 90.6665 275.272 91.0771L276.976 91.0869C313.637 91.0868 330.193 77.5619 330.193 47.5439H330.178C330.178 18.0095 314.134 4.42692 278.663 4.00977L276.96 4C240.299 4 223.757 17.5408 223.757 47.5439L223.769 48.9385Z" fill="white"/>
<path d="M434.669 53.4329C434.669 81.6737 422.287 91.0874 385.249 91.0874C348.211 91.0874 335.09 81.4328 335.09 53.4329V6.34964H380.839V51.5501C380.839 58.2526 381.937 60.3763 385.5 60.3763C389.062 60.3763 390.161 58.2526 390.161 51.5501V6.34964H434.685V53.4329H434.669Z" fill="black"/>
<path d="M380.839 51.5498V6.34964H335.09V53.4326C335.09 80.995 347.804 90.781 383.53 91.0801L385.249 91.0869C421.708 91.0869 434.276 81.9657 434.66 54.7432L434.67 53.4326H434.685V6.34964H390.161V51.5498C390.161 58.2523 389.062 60.376 385.5 60.376V56.376C385.586 56.376 385.66 56.3707 385.722 56.3672C385.795 56.1468 385.891 55.781 385.971 55.2061C386.094 54.3226 386.161 53.138 386.161 51.5498V2.34964H438.685V57.4326H438.583C438.019 70.0534 434.613 79.6793 426.272 86.0323C417.408 92.783 403.845 95.0869 385.249 95.0869C366.626 95.0869 352.915 92.7146 343.885 85.9639C334.51 78.9546 331.09 67.989 331.09 53.4326V2.34964H384.839V51.5498C384.839 53.138 384.905 54.3226 385.028 55.2061C385.108 55.781 385.204 56.1468 385.277 56.3672C385.339 56.3707 385.413 56.376 385.5 56.376V60.376C381.937 60.376 380.839 58.2523 380.839 51.5498Z" fill="white"/>
<path d="M519.903 38.838H502.483V88.7377H456.625V38.838H439.205V6.34964H519.903V38.838Z" fill="black"/>
<path d="M519.904 38.8379V6.34964H439.205V38.8379H456.625V88.7373H502.483V38.8379H519.904ZM523.904 42.8379H506.483V92.7373H452.625V42.8379H435.205V2.34964H523.904V42.8379Z" fill="white"/>
<path d="M688.897 88.7377H647.072V44.7271H643.635L636.887 88.7377H598.876L592.127 44.7271H588.691V88.7377H547.604V6.34964H611.62L614.931 47.6642H618.368L621.679 6.34964H688.881V88.7377H688.897Z" fill="black"/>
<path d="M688.881 6.34964H621.68L618.368 47.6641H614.931L611.619 6.34964H547.604V88.7373H588.69V44.7276H592.128L598.876 88.7373H636.887L643.636 44.7276H647.072V88.7373H688.881V6.34964ZM692.881 88.7373H688.896V92.7373H643.072V74.7901L640.32 92.7373H595.442L592.69 74.7901V92.7373H543.604V2.34964H615.312L616.649 19.042L617.987 2.34964H692.881V88.7373Z" fill="white"/>
<path d="M778.651 32.6024H743.826V38.838H776.203V56.2494H743.826V62.485H778.651V88.7377H697.952V6.34964H778.651V32.6024Z" fill="black"/>
<path d="M778.651 62.4854H743.826V56.2491H776.202V38.8379H743.826V32.6026H778.651V6.34964H697.952V88.7373H778.651V62.4854ZM782.651 36.6026H780.202V58.4854H782.651V92.7373H693.952V2.34964H782.651V36.6026Z" fill="white"/>
</svg>
