<?xml version="1.0" encoding="UTF-8"?>
<svg id="_レイヤー_2" data-name="レイヤー 2" xmlns="http://www.w3.org/2000/svg" viewBox="0 0 507.25 117.35">
  <g id="_レイヤー_2-2" data-name="レイヤー 2">
    <g>
      <path d="M62.05.59h7.59l-3.68,29.94h-7.59L62.05.59ZM75.9.59h7.59l-3.68,29.94h-7.59l3.68-29.94ZM111.7.59h7.59l-3.68,29.94h-8.3l-7.94-13.42c-1.3-2.11-2.42-4.4-3.68-7.41v1.35c0,2.24-.09,3.81-.31,5.66l-1.71,13.82h-7.59l3.68-29.94h8.17l8.53,14.45,1.3,2.42,1.17,2.29.58,1.12c.04-1.89.13-3.37.36-5.12l1.84-15.17h-.01ZM143.87.59h7.59l-2.11,17.32c-.72,5.74-1.48,8.03-3.41,9.87-2.24,2.15-5.83,3.32-10.23,3.32-7.76,0-12.48-3.81-12.48-10.23,0-.9.13-2.29.36-4.13l1.97-16.16h7.54l-1.97,16.16c-.09.9-.13,1.75-.13,2.51,0,3.14,1.62,4.67,4.94,4.67,1.89,0,3.37-.49,4.26-1.48.94-1.08,1.26-2.11,1.62-4.8l2.06-17.06h0ZM182.46.59h7.85l.94,29.94h-7.59l-.36-13.42v-.94c0-1.66.09-2.78.36-4.98-.72,1.93-1.3,3.28-2.11,4.94l-7.36,14.41h-3.99l-2.56-11.58c-.63-2.83-.85-4.35-1.26-8.26-.72,3.68-1.08,5.12-1.57,6.87l-3.86,12.97h-7.81L162.61.6h7.5l2.24,10.1c.58,2.51.99,4.98,1.35,7.85.49-1.39,1.17-3.05,1.71-4.08l7.05-13.87h0ZM215.06,25.5h-10.68l-2.29,5.03h-8.44L208.51.59h8.53l7.22,29.94h-7.94l-1.26-5.03h0ZM210.17,12.89l-3.01,6.69h6.46l-1.26-5.7c-.49-2.29-.54-2.56-.67-3.46-.04-.22-.13-.58-.18-1.08-.49,1.57-.9,2.51-1.35,3.55h.01ZM260.2.59h7.59l-3.68,29.94h-7.59l1.48-12.25h-11l-1.53,12.25h-7.59l3.68-29.94h7.59l-1.35,11.09h11l1.39-11.09h0ZM274.05.59h7.59l-3.68,29.94h-7.59l3.68-29.94ZM305.81,16.52c-1.08,1.17-1.89,1.66-3.95,2.38l7,11.62h-8.8l-6.82-11.89-1.44,11.89h-7.59l3.68-29.94h9.74c4.08,0,6.6.81,8.3,2.6,1.44,1.53,2.29,3.99,2.29,6.69s-.81,4.94-2.42,6.64h.01ZM296.17,6.6h-1.44l-.94,7.67h1.35c3.64,0,5.3-1.35,5.3-4.17,0-2.6-1.08-3.5-4.26-3.5h0ZM329.43,0c9.07,0,15.3,5.57,15.66,14.05v.58c0,9.83-6.55,16.47-16.25,16.47s-16.34-6.1-16.34-15.13,7-15.98,16.92-15.98h.01ZM337.33,15.45c0-.18,0-.36-.04-.54-.27-4.71-3.46-7.72-8.17-7.72-5.12,0-8.84,3.59-8.84,8.53s3.37,8.21,8.39,8.21,8.66-3.46,8.66-8.48h0ZM375.49.59l-13.06,16.83-1.62,13.11h-7.59l1.66-13.33-7.63-16.61h8.39l2.06,4.8c1.21,2.87,1.3,3.05,1.62,4.04.09.22.18.58.31.99.4-.76.81-1.39,1.48-2.38l5.16-7.45h9.22ZM396.99.59h7.59l-2.11,17.32c-.72,5.74-1.48,8.03-3.41,9.87-2.24,2.15-5.83,3.32-10.23,3.32-7.76,0-12.48-3.81-12.48-10.23,0-.9.13-2.29.36-4.13l1.97-16.16h7.54l-1.97,16.16c-.09.9-.13,1.75-.13,2.51,0,3.14,1.62,4.67,4.94,4.67,1.89,0,3.37-.49,4.26-1.48.94-1.08,1.26-2.11,1.62-4.8l2.06-17.06h-.01ZM410.85.59h7.59l-1.62,13.11,9.87-13.11h8.71l-11.44,15.26,10.23,14.68h-9.11l-6.42-9.56c-.81-1.21-1.66-2.78-2.24-3.95l-1.66,13.51h-7.59l3.68-29.94h0ZM441,.59h7.59l-3.68,29.94h-7.59l3.68-29.94Z"/>
      <path d="M0,116.1L7.89,51.95h21.45c7.31,0,13.85.96,18.66,5.67s5.39,10.48,5.39,14.71c0,4.62-.67,10.39-5,15.1-4.42,4.81-12.12,7.41-22.31,7.41h-7.21l-2.6,21.25H0ZM27.03,65.42h-4.52l-1.92,15.97h5.1c2.31,0,6.54-.19,9.04-2.69,1.83-1.83,2.02-4.23,2.02-5.67,0-2.79-.87-4.52-1.83-5.48-2.12-2.21-5.58-2.12-7.89-2.12h0ZM92.73,50.7c19.43,0,32.8,11.93,33.57,30.1v1.25c0,21.06-14.04,35.3-34.82,35.3s-35.01-13.08-35.01-32.41,15-34.24,36.26-34.24h0ZM109.66,83.79c0-.38,0-.77-.1-1.15-.58-10.1-7.41-16.54-17.5-16.54-10.96,0-18.95,7.69-18.95,18.27s7.21,17.6,17.98,17.6,18.56-7.41,18.56-18.18h.01ZM179.16,86.09c-2.31,2.5-4.04,3.56-8.46,5.1l15,24.91h-18.85l-14.62-25.49-3.08,25.49h-16.25l7.89-64.15h20.87c8.75,0,14.14,1.73,17.79,5.58,3.08,3.27,4.9,8.56,4.9,14.33s-1.73,10.58-5.19,14.23h0ZM158.48,64.84h-3.08l-2.02,16.45h2.89c7.79,0,11.35-2.89,11.35-8.94,0-5.58-2.31-7.5-9.14-7.5h0ZM233.76,66.09h-13.66l-6.25,50.01h-16.16l6.16-50.01h-13.66l1.73-14.14h43.57l-1.73,14.14ZM242.69,51.95h36.55l-1.73,14.14h-20.29l-1.35,10.87h18.47l-1.73,14.04h-18.47l-3.08,25.1h-16.25l7.89-64.15h0ZM321.24,50.7c19.43,0,32.8,11.93,33.57,30.1v1.25c0,21.06-14.04,35.3-34.82,35.3s-35.01-13.08-35.01-32.41,15-34.24,36.26-34.24h0ZM338.17,83.79c0-.38,0-.77-.1-1.15-.58-10.1-7.41-16.54-17.5-16.54-10.96,0-18.95,7.69-18.95,18.27s7.21,17.6,17.98,17.6,18.56-7.41,18.56-18.18h0ZM369.3,51.95h16.25l-6.16,50.01h20.49l-1.83,14.14h-36.64l7.89-64.15h0ZM414.66,51.95h16.25l-7.89,64.15h-16.25l7.89-64.15ZM473.68,50.7c19.43,0,32.8,11.93,33.57,30.1v1.25c0,21.06-14.04,35.3-34.82,35.3s-35.01-13.08-35.01-32.41,15-34.24,36.26-34.24h0ZM490.6,83.79c0-.38,0-.77-.1-1.15-.58-10.1-7.41-16.54-17.5-16.54-10.96,0-18.95,7.69-18.95,18.27s7.21,17.6,17.98,17.6,18.56-7.41,18.56-18.18h.01Z"/>
    </g>
  </g>
</svg>