<?xml version="1.0" encoding="UTF-8"?>
<svg id="_レイヤー_2" data-name="レイヤー 2" xmlns="http://www.w3.org/2000/svg" viewBox="0 0 418.73 66.76">
  <g id="_レイヤー_2-2" data-name="レイヤー 2">
    <g>
      <path d="M60.71,2.6l-1.08,28.24c-4.15-1.08-10.19-1.8-15.43-1.8-6.5,0-9.02,1.08-9.02,4.33s2.53,4.33,9.02,4.33c5.32,0,11.28-.72,15.43-1.8l1.08,28.24c-8.03,1.98-13.89,2.62-21.02,2.62C11.63,66.76,0,57.02,0,33.38S11.64,0,39.69,0c7.13,0,12.99.63,21.02,2.62v-.02Z"/>
      <path d="M133.68,36.97c0,20.57-10.92,29.77-35,29.77s-35-9.2-35-29.77,10.92-29.77,35-29.77,35,9.2,35,29.77ZM95.17,36.97c0,5.86.81,7.49,3.52,7.49s3.52-1.62,3.52-7.49-.81-7.49-3.52-7.49-3.52,1.62-3.52,7.49Z"/>
      <path d="M203.86,29.76v35.18h-30.13v-30.58c0-3.61-.81-4.87-3.16-4.87-.99,0-1.98.27-2.8.81v34.64h-30.13V9.01h28.78l.63,7.4h.18c3.97-6.4,9.65-9.2,18.49-9.2,13.17,0,18.13,6.22,18.13,22.55h.01Z"/>
      <path d="M238.86,9.01h11.1v21.83h-11.1v5.59c0,2.62,1.08,3.61,4.51,3.61,2.08,0,4.24-.36,6.59-1.26v26.16c-5.68,1.35-9.02,1.8-14.25,1.8-19.67,0-26.97-6.4-26.97-23.36V1.79h30.13v7.22h-.01Z"/>
      <path d="M316.35,35.26v17.32c0,5.41.27,8.66.9,12.36h-28.42l-1.17-5.05h-.18c-3.61,4.51-9.56,6.86-17.41,6.86-11.64,0-17.32-5.14-17.32-15.7s6.04-16.06,18.49-16.06c5.68,0,11.19,1.08,14.7,2.89h.18v-.18c0-4.6-4.06-6.68-13.08-6.68-7.22,0-14.07,1.35-17.86,3.61l-.9-25.17c7.76-1.44,16.96-2.25,25.98-2.25,26.88,0,36.08,7.13,36.08,28.06h.01ZM280.08,49.6c0,3.52.9,4.6,3.43,4.6,1.08,0,1.89-.18,2.62-.72v-7.76c-.72-.54-1.53-.72-2.62-.72-2.53,0-3.43,1.08-3.43,4.6Z"/>
      <path d="M373.35,9.46l-.9,25.71c-3.16-1.08-8.48-1.71-13.8-1.71-6.04,0-7.85.81-7.85,3.52s1.89,3.52,7.85,3.52c5.32,0,10.64-.63,13.8-1.71l.9,25.71c-6.95,1.62-12.18,2.25-18.85,2.25-24.81,0-35.18-8.75-35.18-29.77s10.37-29.77,35.18-29.77c6.68,0,11.91.63,18.85,2.25Z"/>
      <path d="M407.63,9.01h11.1v21.83h-11.1v5.59c0,2.62,1.08,3.61,4.51,3.61,2.08,0,4.24-.36,6.59-1.26v26.16c-5.68,1.35-9.02,1.8-14.25,1.8-19.67,0-26.97-6.4-26.97-23.36V1.79h30.13v7.22h-.01Z"/>
    </g>
  </g>
</svg>