<?xml version="1.0" encoding="UTF-8"?>
<svg id="_レイヤー_2" data-name="レイヤー 2" xmlns="http://www.w3.org/2000/svg" xmlns:xlink="http://www.w3.org/1999/xlink" viewBox="0 0 161 56">
  <defs>
    <style>
      .cls-1 {
        fill: none;
      }

      .cls-2 {
        fill: #fff;
      }

      .cls-3 {
        clip-path: url(#clippath);
      }
    </style>
    <clipPath id="clippath">
      <rect class="cls-1" width="161" height="56"/>
    </clipPath>
  </defs>
  <g id="_レイヤー_1-2" data-name="レイヤー 1">
    <g class="cls-3">
      <path class="cls-2" d="M20.97,4.66h2.37l-1.15,9.34h-2.37l1.15-9.34ZM25.29,4.66h2.37l-1.15,9.34h-2.37l1.15-9.34ZM36.46,4.66h2.37l-1.15,9.34h-2.59l-2.48-4.19c-.41-.66-.76-1.37-1.15-2.31v.42c0,.7-.03,1.19-.1,1.76l-.53,4.31h-2.37l1.15-9.34h2.55l2.66,4.51.41.76.36.71.18.35c.01-.59.04-1.05.11-1.6l.57-4.73h0ZM46.49,4.66h2.37l-.66,5.4c-.22,1.79-.46,2.51-1.06,3.08-.7.67-1.82,1.04-3.19,1.04-2.42,0-3.89-1.19-3.89-3.19,0-.28.04-.71.11-1.29l.62-5.04h2.35l-.62,5.04c-.03.28-.04.55-.04.78,0,.98.5,1.46,1.54,1.46.59,0,1.05-.15,1.33-.46.29-.34.39-.66.5-1.5l.64-5.32ZM58.53,4.66h2.45l.29,9.34h-2.37l-.11-4.19v-.29c0-.52.03-.87.11-1.55-.22.6-.41,1.02-.66,1.54l-2.3,4.49h-1.25l-.8-3.61c-.2-.88-.27-1.36-.39-2.58-.22,1.15-.34,1.6-.49,2.14l-1.2,4.05h-2.44l2.95-9.34h2.34l.7,3.15c.18.78.31,1.55.42,2.45.15-.43.36-.95.53-1.27l2.2-4.33h.02ZM68.7,12.43h-3.33l-.71,1.57h-2.63l4.63-9.34h2.66l2.25,9.34h-2.48l-.39-1.57ZM67.18,8.5l-.94,2.09h2.02l-.39-1.78c-.15-.71-.17-.8-.21-1.08-.01-.07-.04-.18-.06-.34-.15.49-.28.78-.42,1.11ZM82.78,4.66h2.37l-1.15,9.34h-2.37l.46-3.82h-3.43l-.48,3.82h-2.37l1.15-9.34h2.37l-.42,3.46h3.43l.43-3.46h.01ZM87.1,4.66h2.37l-1.15,9.34h-2.37l1.15-9.34ZM97.01,9.63c-.34.36-.59.52-1.23.74l2.18,3.63h-2.74l-2.13-3.71-.45,3.71h-2.37l1.15-9.34h3.04c1.27,0,2.06.25,2.59.81.45.48.71,1.25.71,2.09s-.25,1.54-.76,2.07h.01ZM94,6.54h-.45l-.29,2.39h.42c1.13,0,1.65-.42,1.65-1.3,0-.81-.34-1.09-1.33-1.09ZM104.38,4.48c2.83,0,4.77,1.74,4.89,4.38v.18c0,3.07-2.04,5.14-5.07,5.14s-5.1-1.9-5.1-4.72,2.18-4.98,5.28-4.98h0ZM106.84,9.29c0-.06,0-.11,0-.17-.08-1.47-1.08-2.41-2.55-2.41-1.6,0-2.76,1.12-2.76,2.66s1.05,2.56,2.62,2.56,2.7-1.08,2.7-2.65h0ZM118.74,4.66l-4.07,5.25-.5,4.09h-2.37l.52-4.16-2.38-5.18h2.62l.64,1.5c.38.9.41.95.5,1.26.03.07.06.18.1.31.13-.24.25-.43.46-.74l1.61-2.32h2.87ZM125.45,4.66h2.37l-.66,5.4c-.22,1.79-.46,2.51-1.06,3.08-.7.67-1.82,1.04-3.19,1.04-2.42,0-3.89-1.19-3.89-3.19,0-.28.04-.71.11-1.29l.62-5.04h2.35l-.62,5.04c-.03.28-.04.55-.04.78,0,.98.5,1.46,1.54,1.46.59,0,1.05-.15,1.33-.46.29-.34.39-.66.5-1.5l.64-5.32ZM129.77,4.66h2.37l-.5,4.09,3.08-4.09h2.72l-3.57,4.76,3.19,4.58h-2.84l-2-2.98c-.25-.38-.52-.87-.7-1.23l-.52,4.21h-2.37l1.15-9.34h0ZM139.18,4.66h2.37l-1.15,9.34h-2.37l1.15-9.34Z"/>
      <path class="cls-2" d="M1.62,47l2.46-20.01h6.69c2.28,0,4.32.3,5.82,1.77s1.68,3.27,1.68,4.59c0,1.44-.21,3.24-1.56,4.71-1.38,1.5-3.78,2.31-6.96,2.31h-2.25l-.81,6.63s-5.07,0-5.07,0ZM10.05,31.19h-1.41l-.6,4.98h1.59c.72,0,2.04-.06,2.82-.84.57-.57.63-1.32.63-1.77,0-.87-.27-1.41-.57-1.71-.66-.69-1.74-.66-2.46-.66ZM30.54,26.6c6.06,0,10.23,3.72,10.47,9.39v.39c0,6.57-4.38,11.01-10.86,11.01s-10.92-4.08-10.92-10.11,4.68-10.68,11.31-10.68ZM35.82,36.92c0-.12,0-.24-.03-.36-.18-3.15-2.31-5.16-5.46-5.16-3.42,0-5.91,2.4-5.91,5.7s2.25,5.49,5.61,5.49,5.79-2.31,5.79-5.67ZM57.5,37.64c-.72.78-1.26,1.11-2.64,1.59l4.68,7.77h-5.88l-4.56-7.95-.96,7.95h-5.07l2.46-20.01h6.51c2.73,0,4.41.54,5.55,1.74.96,1.02,1.53,2.67,1.53,4.47s-.54,3.3-1.62,4.44ZM51.05,31.01h-.96l-.63,5.13h.9c2.43,0,3.54-.9,3.54-2.79,0-1.74-.72-2.34-2.85-2.34ZM74.54,31.4h-4.26l-1.95,15.6h-5.04l1.92-15.6h-4.26l.54-4.41h13.59l-.54,4.41ZM77.32,26.99h11.4l-.54,4.41h-6.33l-.42,3.39h5.76l-.54,4.38h-5.76l-.96,7.83h-5.07l2.46-20.01ZM101.82,26.6c6.06,0,10.23,3.72,10.47,9.39v.39c0,6.57-4.38,11.01-10.86,11.01s-10.92-4.08-10.92-10.11,4.68-10.68,11.31-10.68ZM107.1,36.92c0-.12,0-.24-.03-.36-.18-3.15-2.31-5.16-5.46-5.16-3.42,0-5.91,2.4-5.91,5.7s2.25,5.49,5.61,5.49,5.79-2.31,5.79-5.67h0ZM116.81,26.99h5.07l-1.92,15.6h6.39l-.57,4.41h-11.43l2.46-20.01h0ZM130.96,26.99h5.07l-2.46,20.01h-5.07l2.46-20.01ZM149.37,26.6c6.06,0,10.23,3.72,10.47,9.39v.39c0,6.57-4.38,11.01-10.86,11.01s-10.92-4.08-10.92-10.11,4.68-10.68,11.31-10.68ZM154.65,36.92c0-.12,0-.24-.03-.36-.18-3.15-2.31-5.16-5.46-5.16-3.42,0-5.91,2.4-5.91,5.7s2.25,5.49,5.61,5.49,5.79-2.31,5.79-5.67h0Z"/>
    </g>
  </g>
</svg>