<?xml version="1.0" encoding="UTF-8"?>
<svg id="_レイヤー_2" data-name="レイヤー 2" xmlns="http://www.w3.org/2000/svg" viewBox="0 0 91 91">
  <defs>
    <style>
      .cls-1 {
        fill: gray;
      }
    </style>
  </defs>
  <g id="_レイヤー_3" data-name="レイヤー 3">
    <path class="cls-1" d="M0,0v91h91V0H0ZM38.66,65.32l-8.41-17.34-8.12,17.3h-7.91l11.64-22.18-11.26-22.43h8.21l7.97,17.05,7.9-17.09h7.71l-11.27,21.77,11.93,22.93h-8.4.01ZM74.74,63.5c-3.48,1.66-7.12,2.4-10.59,2.4-8.98.04-15.39-5.5-15.39-16.76.29-11.53,7.98-17.96,18.75-17.09v-11.38h7.37v38.32c.02,4.57.52,4.13-.12,4.51M67.49,38.55v20.48c-7.27,1.89-11.29-2.54-11.26-10.22.03-7.88,5.2-11.97,11.26-10.26"/>
  </g>
</svg>