<?xml version="1.0" encoding="UTF-8"?>
<svg id="_レイヤー_2" data-name="レイヤー 2" xmlns="http://www.w3.org/2000/svg" viewBox="0 0 91 91">
  <defs>
    <style>
      .cls-1 {
        fill: gray;
      }
    </style>
  </defs>
  <g id="_レイヤー_3" data-name="レイヤー 3">
    <path class="cls-1" d="M34.57,38.22h7.28v14.56h-7.28c-4.02,0-7.28-3.26-7.28-7.28s3.26-7.28,7.28-7.28ZM27.29,23.66c0,4.02,3.26,7.28,7.28,7.28h7.28v-14.56h-7.28c-4.02,0-7.28,3.26-7.28,7.28ZM27.29,67.34c0,4.02,3.26,7.28,7.28,7.28s7.28-3.26,7.28-7.28v-7.28h-7.28c-4.02,0-7.28,3.26-7.28,7.28ZM56.41,38.22c-4.02,0-7.28,3.26-7.28,7.28s3.26,7.28,7.28,7.28,7.28-3.26,7.28-7.28-3.26-7.28-7.28-7.28ZM56.96,16.4l-.55-.02h-7.28v14.56h7.28c4.02.02,7.29-3.23,7.31-7.25.02-3.83-2.94-7.02-6.77-7.29h.01ZM91,0v91H0V0h91ZM66.05,34.58c3.13-2.76,4.93-6.74,4.93-10.92,0-8.04-6.52-14.56-14.56-14.56h-21.84c-4.18,0-8.16,1.8-10.92,4.93-5.32,6.03-4.74,15.23,1.29,20.55-3.13,2.76-4.93,6.74-4.93,10.92s1.8,8.16,4.93,10.92c-3.13,2.77-4.93,6.74-4.93,10.92,0,8.04,6.52,14.56,14.56,14.56s14.56-6.52,14.56-14.56v-9.23c6,3.48,13.63,2.23,18.22-2.98,5.31-6.04,4.73-15.24-1.31-20.55Z"/>
  </g>
</svg>