<?xml version="1.0" encoding="UTF-8"?>
<svg id="_レイヤー_2" data-name="レイヤー 2" xmlns="http://www.w3.org/2000/svg" viewBox="0 0 91 91">
  <defs>
    <style>
      .cls-1 {
        fill: gray;
      }
    </style>
  </defs>
  <g id="_レイヤー_3" data-name="レイヤー 3">
    <path class="cls-1" d="M69.17,38.1c.83,1.58,1.11,3.27,1.09,5.02h-12.01c.73-4.7,2.66-7.57,6.5-7.48,2.23,0,3.71.82,4.43,2.46M24.97,44.5h10.24l-5.32-20.08c-.67,4.54-3.01,12.28-4.92,20.08M91,0v91H0V0h91ZM48.77,64.97l-14.07-47.45h-9.73c0,1.05-.07,2.2-.2,2.66s-.2.89-.2,1.28l-12.43,43.51h7.36l3.5-13.39h13.78l3.85,13.39h8.14ZM77.54,43.51c0-3.15-.92-6.3-2.76-9.45s-5.12-4.73-9.84-4.73-8.17,1.81-10.73,5.41c-4.83,6.37-5.33,18.39-.2,25.4,2.43,3.61,6.46,5.41,12.11,5.41,3.09,0,6.04-.38,8.66-1.58.31-.32.39-.46.39-.98v-5.32c0-.37-.21-.38-.59-.39-3.84,1.88-9.43,1.81-12.25.18-2.63-1.52-4.17-4.68-4.09-8.45h11.22c1.97,0,3.54-.03,4.73-.1,1.18-.06,2.03-.16,2.56-.3.13,0,.23-.03.3-.1l.3-.3c0-.39.03-1.02.1-1.87.06-.85.1-1.8.1-2.85"/>
  </g>
</svg>