<?xml version="1.0" encoding="UTF-8"?>
<svg id="_レイヤー_2" data-name="レイヤー 2" xmlns="http://www.w3.org/2000/svg" viewBox="0 0 91.01 91.01">
  <defs>
    <style>
      .cls-1 {
        fill: gray;
        fill-rule: evenodd;
      }
    </style>
  </defs>
  <g id="_レイヤー_3" data-name="レイヤー 3">
    <path class="cls-1" d="M79.63,0c6.28,0,11.38,5.09,11.38,11.38v68.25c0,6.28-5.09,11.38-11.38,11.38H11.38c-6.28,0-11.38-5.09-11.38-11.38V11.38C0,5.1,5.09,0,11.38,0h68.25ZM73.16,42.59c-2.22,0-4.13.46-5.72,1.39-1.54.91-2.79,2.24-3.61,3.83-.89,1.75-1.33,3.7-1.28,5.66,0,2.86.56,5.1,1.67,6.72,1.15,1.59,2.98,2.98,5.5,4.16l2.67,1.22c1.66.71,2.85,1.52,3.55,2.45.7.93,1.05,2.13,1.05,3.61,0,1.81-.31,3.15-.94,4-.59.85-1.59,1.27-3,1.27s-2.41-.46-3.11-1.39c-.71-.92-1.09-2.35-1.17-4.28h-6.61c.08,3.78,1.02,6.67,2.83,8.67,1.82,2,4.44,3,7.88,3s6.13-.98,8.06-2.95c1.92-1.96,2.88-4.77,2.88-8.44,0-3.07-.63-5.51-1.89-7.33-1.26-1.82-3.24-3.31-5.94-4.49l-2.55-1.11c-1.48-.63-2.53-1.35-3.16-2.17-.63-.81-.94-1.9-.94-3.28,0-1.52.31-2.65.94-3.39.67-.74,1.63-1.11,2.89-1.11,1.37,0,2.33.44,2.89,1.33.59.89.93,2.22,1,4h6.39c-.11-3.7-1.06-6.51-2.83-8.44-1.78-1.96-4.26-2.95-7.44-2.95M39.82,43.2v6.33h7.39v32.94h6.94v-32.94h7.33v-6.33h-21.67.01Z"/>
  </g>
</svg>