<?xml version="1.0" encoding="UTF-8"?>
<svg id="_レイヤー_2" data-name="レイヤー 2" xmlns="http://www.w3.org/2000/svg" viewBox="0 0 91 91">
  <defs>
    <style>
      .cls-1 {
        fill: gray;
        fill-rule: evenodd;
      }
    </style>
  </defs>
  <g id="_レイヤー_3" data-name="レイヤー 3">
    <path class="cls-1" d="M91,91H0V0h91v91ZM72.23,38.57v-7.06c-1.16-.52-7.82-2.42-13.08-.42-7.58,2.89-7.3,11.6-4.43,15.01,3.72,4.43,12.99,6.08,11.47,10.42-.79,2.25-4.45,2.64-7.68,1.89-3.01-.7-5.63-2.49-5.63-2.49v7.47s2.59,1.44,5.76,1.78c4.07.44,9.17-.39,11.72-2.66,4.55-4.04,5.25-13-3.37-17.16-7.17-3.46-7.05-4.45-7-6.22.07-2.38,5.06-3.84,12.23-.58M33.55,18.77c5.97.21,14.74,2.96,14.74,14.69s-10.73,15.58-20.52,14.74v16.61h-7.29V18.93s7.11-.36,13.08-.16M35.45,40.92c3.15-1.15,5.19-3.61,5.19-7.45,0-4.06-2.08-6.81-5.26-7.59-3.45-.84-7.61-.35-7.61-.35v16s5.76.08,7.68-.62"/>
  </g>
</svg>