<svg xmlns="http://www.w3.org/2000/svg" xmlns:xlink="http://www.w3.org/1999/xlink" preserveAspectRatio="xMidYMid meet" width="775" height="590" viewBox="0 0 775 590" style="width:100%;height:100%"><defs><animateTransform repeatCount="indefinite" dur="5s" begin="0s" xlink:href="#_R_G_L_0_G_L_3_G" fill="freeze" attributeName="transform" from="0" to="0" type="rotate" additive="sum" keyTimes="0;0.1;0.1666667;0.8;0.8666667;1" values="0;0;6;6;0;0" keySplines="0.167 0.167 0.833 0.833;0.167 0.167 0.833 0.833;0.167 0.167 0.833 0.833;0.167 0.167 0.833 0.833;0 0 0 0" calcMode="spline"/><animateTransform repeatCount="indefinite" dur="5s" begin="0s" xlink:href="#_R_G_L_0_G_L_3_G" fill="freeze" attributeName="transform" from="-718.19 -497.1" to="-718.19 -497.1" type="translate" additive="sum" keyTimes="0;1" values="-718.19 -497.1;-718.19 -497.1" keySplines="0 0 1 1" calcMode="spline"/><animateTransform repeatCount="indefinite" dur="5s" begin="0s" xlink:href="#_R_G_L_0_G_L_2_G" fill="freeze" attributeName="transform" from="0" to="0" type="rotate" additive="sum" keyTimes="0;0.1;0.15;0.8166667;0.8666667;1" values="0;0;4;4;0;0" keySplines="0.167 0.167 0.833 0.833;0.167 0.167 0.833 0.833;0.167 0.167 0.833 0.833;0.167 0.167 0.833 0.833;0 0 0 0" calcMode="spline"/><animateTransform repeatCount="indefinite" dur="5s" begin="0s" xlink:href="#_R_G_L_0_G_L_2_G" fill="freeze" attributeName="transform" from="-718.19 -497.1" to="-718.19 -497.1" type="translate" additive="sum" keyTimes="0;1" values="-718.19 -497.1;-718.19 -497.1" keySplines="0 0 1 1" calcMode="spline"/><animateTransform repeatCount="indefinite" dur="5s" begin="0s" xlink:href="#_R_G_L_0_G_L_1_G" fill="freeze" attributeName="transform" from="0" to="0" type="rotate" additive="sum" keyTimes="0;0.1;0.1333333;0.8333333;0.8666667;1" values="0;0;2;2;0;0" keySplines="0.167 0.167 0.833 0.833;0.167 0.167 0.833 0.833;0.167 0.167 0.833 0.833;0.167 0.167 0.833 0.833;0 0 0 0" calcMode="spline"/><animateTransform repeatCount="indefinite" dur="5s" begin="0s" xlink:href="#_R_G_L_0_G_L_1_G" fill="freeze" attributeName="transform" from="-718.19 -497.1" to="-718.19 -497.1" type="translate" additive="sum" keyTimes="0;1" values="-718.19 -497.1;-718.19 -497.1" keySplines="0 0 1 1" calcMode="spline"/><animate attributeType="XML" attributeName="opacity" dur="5s" from="0" to="1" xlink:href="#time_group"/></defs><g id="_R_G"><g id="_R_G_L_0_G"><g id="_R_G_L_0_G_L_3_G" transform=" translate(721.069, 586.551)"><path id="_R_G_L_0_G_L_3_G_D_0_P_0" fill="#e3003d" fill-opacity="1" fill-rule="nonzero" d=" M49.46 497.09 C49.46,497.09 668.97,497.09 668.97,497.09 C696.16,497.09 718.19,475.05 718.19,447.87 C718.19,447.87 718.19,111.57 718.19,111.57 C718.19,84.38 696.15,62.35 668.97,62.35 C668.97,62.35 321.29,62.35 321.29,62.35 C306.75,62.35 292.95,55.92 283.6,44.79 C283.6,44.79 260.94,17.81 260.94,17.81 C251.59,6.68 237.79,0.25 223.25,0.25 C223.25,0.25 49.47,0.25 49.47,0.25 C22.28,0.25 0.25,22.29 0.25,49.47 C0.25,49.47 0.25,447.88 0.25,447.88 C0.25,475.07 22.29,497.1 49.47,497.1 C49.47,497.1 49.46,497.09 49.46,497.09z "/></g><g id="_R_G_L_0_G_L_2_G" transform=" translate(721.069, 586.551)"><path id="_R_G_L_0_G_L_2_G_D_0_P_0" fill="#22ac38" fill-opacity="1" fill-rule="nonzero" d=" M49.46 497.09 C49.46,497.09 668.97,497.09 668.97,497.09 C696.16,497.09 718.19,475.05 718.19,447.87 C718.19,447.87 718.19,111.57 718.19,111.57 C718.19,84.38 696.15,62.35 668.97,62.35 C668.97,62.35 321.29,62.35 321.29,62.35 C306.75,62.35 292.95,55.92 283.6,44.79 C283.6,44.79 260.94,17.81 260.94,17.81 C251.59,6.68 237.79,0.25 223.25,0.25 C223.25,0.25 49.47,0.25 49.47,0.25 C22.28,0.25 0.25,22.29 0.25,49.47 C0.25,49.47 0.25,447.88 0.25,447.88 C0.25,475.07 22.29,497.1 49.47,497.1 C49.47,497.1 49.46,497.09 49.46,497.09z "/></g><g id="_R_G_L_0_G_L_1_G" transform=" translate(721.069, 586.551)"><path id="_R_G_L_0_G_L_1_G_D_0_P_0" fill="#fccb00" fill-opacity="1" fill-rule="nonzero" d=" M49.46 497.09 C49.46,497.09 668.97,497.09 668.97,497.09 C696.16,497.09 718.19,475.05 718.19,447.87 C718.19,447.87 718.19,111.57 718.19,111.57 C718.19,84.38 696.15,62.35 668.97,62.35 C668.97,62.35 321.29,62.35 321.29,62.35 C306.75,62.35 292.95,55.92 283.6,44.79 C283.6,44.79 260.94,17.81 260.94,17.81 C251.59,6.68 237.79,0.25 223.25,0.25 C223.25,0.25 49.47,0.25 49.47,0.25 C22.28,0.25 0.25,22.29 0.25,49.47 C0.25,49.47 0.25,447.88 0.25,447.88 C0.25,475.07 22.29,497.1 49.47,497.1 C49.47,497.1 49.46,497.09 49.46,497.09z "/></g><g id="_R_G_L_0_G_L_0_G" transform=" translate(362.099, 338.126) translate(-359.22, -248.675)"><path id="_R_G_L_0_G_L_0_G_D_0_P_0" fill="#00a0e9" fill-opacity="1" fill-rule="nonzero" d=" M49.46 497.09 C49.46,497.09 668.97,497.09 668.97,497.09 C696.16,497.09 718.19,475.05 718.19,447.87 C718.19,447.87 718.19,111.57 718.19,111.57 C718.19,84.38 696.15,62.35 668.97,62.35 C668.97,62.35 321.29,62.35 321.29,62.35 C306.75,62.35 292.95,55.92 283.6,44.79 C283.6,44.79 260.94,17.81 260.94,17.81 C251.59,6.68 237.79,0.25 223.25,0.25 C223.25,0.25 49.47,0.25 49.47,0.25 C22.28,0.25 0.25,22.29 0.25,49.47 C0.25,49.47 0.25,447.88 0.25,447.88 C0.25,475.07 22.29,497.1 49.47,497.1 C49.47,497.1 49.46,497.09 49.46,497.09z "/><path id="_R_G_L_0_G_L_0_G_D_1_P_0" fill="#ffffff" fill-opacity="1" fill-rule="nonzero" d=" M117.24 283.54 C117.24,283.54 99.39,225.54 99.39,225.54 C99.39,225.54 99.39,283.54 99.39,283.54 C99.39,283.54 60.72,283.54 60.72,283.54 C60.72,283.54 60.72,179.44 60.72,179.44 C60.72,179.44 115.74,179.44 115.74,179.44 C115.74,179.44 132.84,235.95 132.84,235.95 C132.84,235.95 149.94,179.44 149.94,179.44 C149.94,179.44 204.96,179.44 204.96,179.44 C204.96,179.44 204.96,283.54 204.96,283.54 C204.96,283.54 166.29,283.54 166.29,283.54 C166.29,283.54 166.29,225.54 166.29,225.54 C166.29,225.54 148.44,283.54 148.44,283.54 C148.44,283.54 117.21,283.54 117.21,283.54 C117.21,283.54 117.24,283.54 117.24,283.54z "/><path id="_R_G_L_0_G_L_0_G_D_2_P_0" fill="#ffffff" fill-opacity="1" fill-rule="nonzero" d=" M239.91 283.54 C239.91,283.54 213.88,204.72 213.88,204.72 C213.88,204.72 251.06,204.72 251.06,204.72 C251.06,204.72 257.75,246.36 257.75,246.36 C257.75,246.36 264.44,204.72 264.44,204.72 C264.44,204.72 301.62,204.72 301.62,204.72 C301.62,204.72 273.36,289.49 273.36,289.49 C264.44,316.26 254.03,326.67 235.44,326.67 C225.03,326.67 216.11,320.72 216.11,320.72 C216.11,320.72 224.29,294.7 224.29,294.7 C224.29,294.7 226.52,296.19 229.5,296.19 C233.22,296.19 236.34,293.22 237.68,289.5 C237.68,289.5 239.91,283.55 239.91,283.55 C239.91,283.55 239.91,283.54 239.91,283.54z "/><path id="_R_G_L_0_G_L_0_G_D_3_P_0" fill="#ffffff" fill-opacity="1" fill-rule="nonzero" d=" M158.14 392.62 C158.14,392.62 166.32,335.37 166.32,335.37 C166.32,335.37 206.47,335.37 206.47,335.37 C206.47,335.37 184.16,439.47 184.16,439.47 C184.16,439.47 141.03,439.47 141.03,439.47 C141.03,439.47 129.88,386.68 129.88,386.68 C129.88,386.68 118.73,439.47 118.73,439.47 C118.73,439.47 75.6,439.47 75.6,439.47 C75.6,439.47 53.29,335.37 53.29,335.37 C53.29,335.37 93.44,335.37 93.44,335.37 C93.44,335.37 101.62,392.62 101.62,392.62 C101.62,392.62 112.77,335.37 112.77,335.37 C112.77,335.37 146.97,335.37 146.97,335.37 C146.97,335.37 158.12,392.62 158.12,392.62 C158.12,392.62 158.14,392.62 158.14,392.62z "/><path id="_R_G_L_0_G_L_0_G_D_4_P_0" fill="#ffffff" fill-opacity="1" fill-rule="nonzero" d=" M251.81 358.42 C278.58,358.42 297.17,377.01 297.17,400.06 C297.17,423.11 278.58,441.7 251.81,441.7 C225.04,441.7 206.45,423.11 206.45,400.06 C206.45,377.01 225.04,358.42 251.81,358.42z  M251.81 388.91 C246.6,388.91 242.14,393.37 242.14,400.06 C242.14,406.75 246.6,411.21 251.81,411.21 C257.02,411.21 261.48,406.75 261.48,400.06 C261.48,393.37 257.02,388.91 251.81,388.91z "/><path id="_R_G_L_0_G_L_0_G_D_5_P_0" fill="#ffffff" fill-opacity="1" fill-rule="nonzero" d=" M364.08 358.42 C370.03,358.42 374.49,360.65 374.49,360.65 C374.49,360.65 368.54,393.37 368.54,393.37 C368.54,393.37 362.59,390.39 358.13,390.39 C350.69,390.39 344.75,396.34 344.75,406.75 C344.75,406.75 344.75,439.47 344.75,439.47 C344.75,439.47 309.06,439.47 309.06,439.47 C309.06,439.47 309.06,360.65 309.06,360.65 C309.06,360.65 343.26,360.65 343.26,360.65 C343.26,360.65 346.23,369.57 346.23,369.57 C346.23,369.57 352.18,358.42 364.08,358.42z "/><path id="_R_G_L_0_G_L_0_G_D_6_P_0" fill="#ffffff" fill-opacity="1" fill-rule="nonzero" d=" M446.61 399.32 C446.61,399.32 470.4,439.47 470.4,439.47 C470.4,439.47 430.99,439.47 430.99,439.47 C430.99,439.47 416.12,408.24 416.12,408.24 C416.12,408.24 416.12,439.47 416.12,439.47 C416.12,439.47 380.43,439.47 380.43,439.47 C380.43,439.47 380.43,329.42 380.43,329.42 C380.43,329.42 416.12,329.42 416.12,329.42 C416.12,329.42 416.12,390.39 416.12,390.39 C416.12,390.39 428.76,360.65 428.76,360.65 C428.76,360.65 467.43,360.65 467.43,360.65 C467.43,360.65 446.61,399.32 446.61,399.32z "/></g></g></g><g id="time_group"/></svg>